<svg xmlns="http://www.w3.org/2000/svg" width="168" height="27" viewBox="0 0 168 27">
<g>
<path d="M 349.72,286.06 L 349.16,286.33 L 347.72,286.77 L 346.92,286.97 L 344.89,287.29 L 341.01,287.68 L 339.91,287.76 L 337.90,287.86 L 336.94,287.89 L 335.35,287.89 L 334.63,287.87 L 333.63,287.77 L 333.23,287.71 L 333.00,287.52 L 333.00,287.47 L 333.12,287.14 L 333.20,286.94 L 333.47,286.34 L 333.77,285.69 L 334.74,283.71 L 335.27,282.63 L 336.62,280.00 L 338.92,275.62 L 344.83,264.50 L 339.67,255.59 L 338.96,254.36 L 337.60,252.14 L 336.95,251.08 L 335.80,249.34 L 335.26,248.54 L 334.45,247.47 L 334.27,247.26 L 334.01,246.98 L 333.75,246.84 L 333.65,246.86 L 332.95,246.90 L 332.53,246.92 L 331.31,246.95 L 330.65,246.97 L 329.08,246.99 L 326.50,247.00 L 326.44,247.00 L 329.74,246.92 L 331.34,246.77 L 331.92,246.62 L 332.94,246.28 L 333.31,246.01 L 333.99,245.42 L 334.28,245.02 L 335.03,244.07 L 335.47,243.71 L 335.69,243.66 L 336.12,243.63 L 336.36,243.73 L 336.87,244.02 L 337.18,244.27 L 338.24,245.50 L 339.20,246.85 L 339.75,247.71 L 340.91,249.55 L 341.52,250.58 L 342.76,252.70 L 343.37,253.79 L 344.58,255.97 L 345.13,257.01 L 346.18,259.04 L 346.60,259.92 L 347.38,261.59 L 347.62,262.21 L 348.00,263.30 L 348.00,263.55 L 347.90,264.08 L 347.73,264.60 L 347.60,264.94 L 346.97,266.49 L 346.51,267.49 L 345.50,269.64 L 344.89,270.85 L 343.61,273.36 L 342.92,274.66 L 340.98,278.44 L 339.90,280.77 L 339.49,281.76 L 338.76,283.60 L 338.57,284.25 L 338.41,284.86 L 338.38,285.08 L 338.35,285.46 L 338.38,285.56 L 338.73,286.09 L 339.08,286.29 L 339.87,286.66 L 340.38,286.78 L 342.75,287.13 L 344.13,287.07 L 346.94,286.82 L 348.19,286.49 L 349.39,286.12 L 349.90,285.88 L 350.83,285.37 L 351.12,285.10 L 350.73,285.47 M 246.45,256.76 L 246.59,256.97 L 246.87,257.51 L 247.00,258.00 L 247.24,259.12 L 247.37,259.91 L 248.19,262.63 L 249.07,264.28 L 249.65,265.01 L 250.91,266.41 L 251.64,267.00 L 253.19,268.10 L 254.04,268.53 L 255.79,269.30 L 256.72,269.55 L 258.61,269.94 L 259.57,269.99 L 261.51,269.97 L 262.47,269.80 L 262.48,269.79 L 262.20,269.89 L 259.31,270.55 L 258.61,270.69 L 257.32,270.88 L 255.72,271.00 L 254.57,270.99 L 252.26,270.41 L 251.13,270.04 L 249.08,268.87 L 248.12,268.22 L 246.64,266.66 L 245.37,264.09 L 244.79,261.18 L 241.24,263.88 L 242.58,262.70 L 243.13,261.99 L 243.63,261.28 L 243.77,260.96 L 244.00,260.34 L 244.00,260.07 L 244.40,258.45 L 244.99,257.42 L 245.37,257.11 L 246.08,256.71 M 282.44,270.87 L 281.81,270.85 L 282.18,270.85 L 283.32,270.77 M 206.93,262.16 L 207.32,262.42 L 207.57,262.61 L 208.68,263.51 L 209.29,264.09 L 211.78,266.08 L 213.60,267.22 L 214.57,267.69 L 216.56,268.57 L 217.60,268.91 L 219.71,269.52 L 220.79,269.72 L 222.95,270.05 L 224.04,270.11 L 226.22,270.15 L 227.29,270.06 L 229.42,269.80 L 230.45,269.56 L 230.59,269.52 L 230.57,269.53 L 229.40,269.88 L 227.05,270.38 L 225.87,270.59 L 223.51,270.80 L 222.34,270.87 L 220.03,270.78 L 218.89,270.70 L 216.67,270.32 L 213.50,269.39 L 212.66,269.07 L 211.24,268.54 L 210.57,268.30 L 209.46,267.91 L 208.94,267.73 L 208.08,267.47 L 207.69,267.36 L 207.05,267.23 L 206.46,267.12 L 205.76,267.25 L 205.17,267.80 L 205.51,267.29 L 206.27,266.94 L 206.75,266.92 L 207.67,266.72 L 207.62,266.49 L 207.25,266.34 L 206.48,265.46 L 206.11,264.50 L 206.03,263.99 L 205.93,262.98 L 206.01,262.61 L 206.26,262.00 L 206.54,262.00 M 267.73,263.83 L 268.18,263.99 L 268.50,264.15 L 269.20,264.52 L 269.66,264.78 L 270.65,265.37 L 271.27,265.76 L 272.59,266.58 L 273.40,267.08 L 275.50,268.38 L 276.69,269.09 L 277.20,269.37 L 279.04,270.31 L 279.82,270.54 L 281.20,270.83 L 278.58,270.73 L 273.03,269.61 L 271.88,269.23 L 270.16,268.75 L 269.36,268.56 L 268.04,268.45 L 267.38,268.44 L 266.01,268.69 L 265.31,268.91 L 266.42,268.27 L 266.93,267.80 L 267.08,267.53 L 267.30,266.95 L 267.33,266.59 L 267.31,265.84 L 267.22,265.37 L 267.09,264.07 L 267.18,263.85 L 267.28,263.81 L 267.53,263.77 M 288.28,270.00 L 286.16,270.36 L 289.35,269.66 M 187.86,242.10 L 189.14,242.27 L 189.76,242.61 L 191.00,243.44 L 191.60,244.10 L 192.57,245.61 L 193.05,246.97 L 193.23,247.95 L 193.40,248.99 L 193.47,249.61 L 193.61,250.91 L 193.67,251.68 L 193.79,253.30 L 193.84,254.24 L 193.95,256.21 L 194.00,257.35 L 194.50,268.50 L 199.75,268.80 L 201.92,268.85 L 202.84,268.81 L 202.44,268.92 L 201.72,269.08 L 200.00,269.36 L 197.16,269.69 L 190.00,270.29 L 190.00,257.36 L 189.99,255.17 L 189.98,254.14 L 189.94,252.41 L 189.91,251.60 L 189.83,250.26 L 189.79,249.64 L 189.66,248.62 L 189.52,247.67 L 189.06,246.43 L 188.00,245.00 L 187.45,244.45 L 186.49,243.72 L 186.02,243.41 L 185.22,243.16 L 185.14,243.15 L 185.94,242.56 L 187.23,242.09 M 167.44,240.33 L 167.72,240.88 L 167.84,241.30 L 168.07,242.25 L 168.17,242.86 L 168.34,244.18 L 168.40,244.98 L 168.51,246.64 L 168.54,247.60 L 168.59,249.59 L 168.59,250.69 L 168.57,252.97 L 168.54,254.21 L 168.45,256.75 L 168.38,258.11 L 167.85,268.72 L 171.84,269.36 L 174.71,269.62 L 174.85,269.62 L 171.85,269.84 L 165.00,270.23 L 165.00,241.85 L 162.36,243.93 L 161.99,244.22 L 161.01,244.82 L 160.49,245.12 L 159.27,245.71 L 158.00,246.30 L 155.69,247.12 L 155.81,247.07 L 158.85,245.83 L 160.13,245.12 L 161.36,244.40 L 161.89,244.03 L 162.87,243.29 L 163.24,242.91 L 165.53,240.86 L 166.17,240.38 L 166.41,240.23 L 166.84,240.00 L 166.95,240.00 M 304.00,264.28 L 304.07,266.84 L 304.26,267.93 L 304.49,268.26 L 305.06,268.81 L 305.56,268.98 L 306.71,269.29 L 307.58,269.45 L 310.43,269.70 L 308.68,269.83 L 301.00,270.22 L 301.00,263.98 L 297.24,266.11 L 298.00,265.56 L 300.29,263.76 L 301.23,262.76 L 304.00,259.79 M 128.78,213.54 L 128.68,213.87 L 128.49,214.65 L 128.42,215.25 L 128.29,216.59 L 128.25,217.51 L 128.17,219.54 L 128.14,220.85 L 128.11,223.69 L 128.10,225.46 L 128.10,229.24 L 128.11,231.53 L 128.13,233.89 L 128.13,235.17 L 128.15,237.81 L 128.17,239.25 L 128.28,249.57 L 128.33,252.73 L 128.36,254.19 L 128.41,257.02 L 128.44,258.28 L 128.50,260.71 L 128.53,261.74 L 128.59,263.69 L 128.62,264.46 L 128.67,265.85 L 128.70,266.31 L 128.76,267.06 L 128.79,267.18 L 129.29,268.06 L 129.87,268.56 L 130.27,268.77 L 132.08,269.44 L 133.23,269.57 L 135.21,269.65 L 131.60,270.00 L 126.00,270.00 L 126.00,242.02 L 126.00,214.04 L 128.50,213.41 L 128.95,213.30 M 179.26,268.55 L 178.76,268.83 L 178.71,268.85 L 179.06,268.65 L 179.89,268.11 M 140.13,268.61 L 140.44,268.46 L 140.60,268.39 L 140.13,268.61 M 293.92,267.98 L 293.72,268.05 L 294.11,267.86 L 294.40,267.71 M 318.58,267.00 L 318.50,267.00 L 319.04,266.71 M 236.22,267.23 L 235.18,267.72 L 236.68,266.96 M 319.28,266.56 L 319.27,266.57 L 319.36,266.37 M 182.00,258.01 L 181.96,260.51 L 181.92,261.68 L 181.76,263.58 L 181.66,264.47 L 181.61,264.66 L 181.69,263.94 L 181.87,261.87 L 181.92,260.56 L 182.00,257.75 M 150.61,248.54 L 146.82,249.00 L 150.68,248.52 M 263.29,244.12 L 263.49,244.34 L 263.56,244.55 L 263.68,245.03 L 263.70,245.36 L 263.71,246.10 L 263.68,246.56 L 263.58,247.54 L 263.48,248.12 L 263.29,251.80 L 263.65,253.85 L 264.08,254.64 L 264.55,255.58 L 264.68,255.94 L 264.87,256.62 L 264.84,256.91 L 264.73,257.46 L 264.55,257.74 L 264.12,258.31 L 263.78,258.65 L 262.89,259.45 L 262.45,259.69 L 262.27,259.66 L 261.92,259.49 L 261.74,259.25 L 261.35,258.65 L 261.10,258.18 L 260.30,255.69 L 260.04,253.65 L 260.04,252.57 L 260.15,250.38 L 260.33,249.34 L 260.79,247.35 L 261.16,246.55 L 261.81,245.29 L 262.21,244.68 L 262.39,244.48 L 262.74,244.15 L 262.89,244.09 L 263.17,244.04 M 285.80,243.71 L 288.01,244.10 L 289.32,244.65 L 289.88,245.06 L 290.94,245.94 L 291.37,246.47 L 292.15,247.61 L 292.43,248.25 L 292.90,249.57 L 293.01,250.28 L 293.14,251.71 L 293.07,252.44 L 292.83,253.92 L 292.56,254.65 L 291.92,256.09 L 291.44,256.78 L 290.67,257.88 L 290.36,258.20 L 289.74,258.72 L 289.35,258.77 L 288.47,258.74 L 287.81,258.55 L 287.09,258.33 L 286.65,258.17 L 285.71,257.84 L 285.14,257.63 L 285.12,257.62 L 285.39,257.70 L 285.96,257.85 L 286.82,257.85 L 287.21,257.81 L 287.77,257.43 L 288.03,257.19 L 288.39,256.42 L 288.72,255.56 L 289.00,253.75 L 289.08,252.84 L 288.87,251.05 L 288.70,250.17 L 288.03,248.54 L 286.55,246.45 L 285.87,245.78 L 284.42,244.72 L 284.07,244.50 L 283.46,244.19 L 282.75,244.00 L 282.72,244.00 L 282.79,243.98 L 284.65,243.68 M 227.42,244.14 L 228.49,244.38 L 228.97,244.58 L 229.91,245.05 L 230.34,245.37 L 231.21,246.09 L 231.64,246.55 L 233.17,248.60 L 233.77,249.94 L 233.87,250.63 L 233.93,252.05 L 233.76,252.83 L 233.29,254.46 L 232.86,255.40 L 232.17,256.79 L 231.80,257.26 L 231.03,258.02 L 230.56,258.20 L 229.54,258.40 L 228.88,258.32 L 227.44,258.03 L 226.84,257.83 L 227.42,257.81 L 227.72,257.74 L 228.21,257.28 L 228.45,257.00 L 228.96,256.07 L 229.36,255.32 L 229.80,253.76 L 229.96,252.97 L 229.91,251.42 L 229.83,250.65 L 229.32,249.20 L 228.03,247.27 L 227.46,246.66 L 226.34,245.72 L 225.79,245.31 L 224.73,244.75 L 224.22,244.52 L 223.26,244.33 L 222.79,244.28 L 222.13,244.42 L 222.59,244.30 L 224.38,244.00 L 225.59,244.00 M 279.02,250.42 L 279.33,251.92 L 279.53,252.66 L 280.08,253.83 L 279.61,253.07 L 279.37,252.23 L 279.00,250.46 L 279.00,250.04 M 220.77,253.72 L 220.70,253.62 L 220.66,253.52 M 220.43,252.88 L 220.41,252.82 L 220.34,252.59 M 219.95,250.92 L 220.33,252.56 L 219.94,251.12 L 219.84,250.07 L 219.84,249.91 M 351.52,238.60 L 355.32,245.40 L 357.76,240.45 L 358.15,239.65 L 359.01,238.25 L 359.44,237.57 L 360.40,236.41 L 360.90,235.86 L 361.99,234.92 L 362.55,234.48 L 363.79,233.77 L 364.43,233.44 L 365.44,233.08 L 364.56,233.91 L 363.79,234.93 L 363.39,235.59 L 361.76,238.59 L 361.10,240.30 L 360.05,242.93 L 359.39,244.49 L 359.07,245.17 L 357.87,247.63 L 357.35,248.47 L 356.35,249.89 L 355.93,250.20 L 355.13,250.58 L 354.81,250.38 L 354.30,249.25 L 354.28,248.02 L 354.45,247.35 L 354.52,245.88 L 354.30,244.68 L 354.06,243.96 L 353.47,242.42 L 353.03,241.49 L 352.04,239.53 L 351.38,238.36 L 347.71,231.79 M 153.56,247.83 L 153.46,247.86 L 153.59,247.82 M 219.87,247.48 L 219.87,247.17 L 219.98,246.81 M 220.19,246.22 L 220.07,246.51 L 220.29,245.77 L 220.59,245.45 M 221.78,244.51 L 221.79,244.50 L 221.83,244.49 M 305.78,213.80 L 305.60,214.55 L 305.52,215.02 L 305.37,216.03 L 305.30,216.65 L 305.18,217.95 L 305.13,218.73 L 305.02,220.35 L 304.98,221.29 L 304.90,223.27 L 304.87,224.39 L 304.80,226.74 L 304.78,228.07 L 304.69,231.65 L 304.62,233.76 L 304.58,234.67 L 304.50,236.42 L 304.44,237.17 L 304.34,238.58 L 304.28,239.17 L 304.15,240.26 L 304.08,240.69 L 303.93,241.49 L 303.84,241.78 L 303.48,242.68 L 303.25,242.75 L 302.70,242.72 L 302.41,242.45 L 302.31,242.20 L 302.13,241.60 L 302.08,241.18 L 302.00,240.25 L 302.00,239.66 L 301.87,237.82 L 301.61,236.85 L 301.37,236.44 L 300.80,235.67 L 300.36,235.29 L 299.58,234.69 L 300.25,234.97 L 300.30,234.97 L 300.40,234.76 L 300.45,234.62 L 300.54,234.15 L 300.63,233.62 L 300.78,231.91 L 300.85,230.96 L 300.94,228.57 L 301.00,224.50 L 301.00,223.29 L 301.01,221.26 L 301.02,220.31 L 301.05,218.77 L 301.07,218.05 L 301.14,216.91 L 301.18,216.39 L 301.30,215.61 L 301.36,215.26 L 301.54,214.76 L 301.63,214.55 L 301.88,214.28 L 302.93,214.00 L 303.46,214.00 L 304.73,213.56 L 306.36,212.50 L 306.46,212.40 M 250.56,219.79 L 249.78,220.26 L 249.48,220.57 L 248.94,221.27 L 248.75,221.71 L 248.40,222.68 L 248.29,223.28 L 248.11,224.56 L 248.06,225.33 L 248.00,226.96 L 248.00,234.00 L 244.93,234.00 L 243.44,234.08 L 242.77,234.22 L 242.58,234.35 L 242.30,234.65 L 242.27,234.88 L 242.30,235.40 L 242.41,235.75 L 242.52,237.42 L 242.28,238.57 L 242.03,238.97 L 241.53,239.68 L 241.27,239.91 L 241.16,239.89 L 240.95,239.79 L 240.84,239.60 L 240.61,239.15 L 240.48,238.80 L 239.95,237.10 L 239.66,235.83 L 239.59,235.33 L 239.24,234.47 L 238.79,233.93 L 238.46,233.67 L 236.92,232.72 L 235.93,232.37 L 236.92,232.68 L 238.42,233.35 L 238.93,233.69 L 239.84,234.17 L 240.27,234.37 L 241.02,234.58 L 241.38,234.65 L 241.99,234.58 L 242.28,234.51 L 242.75,234.15 L 242.97,233.93 L 243.32,233.28 L 243.48,232.92 L 243.71,231.96 L 243.81,231.44 L 243.93,230.17 L 244.00,227.89 L 244.00,226.60 L 244.06,224.80 L 244.11,224.00 L 244.33,223.01 L 244.47,222.60 L 244.92,222.20 L 245.93,222.00 L 246.46,222.00 L 247.73,221.56 L 249.36,220.50 L 249.60,220.26 L 250.36,219.85 L 250.79,219.67 L 250.84,219.66 M 206.96,238.08 L 207.89,238.00 L 208.18,237.94 L 208.92,237.67 L 209.32,237.51 L 210.34,237.04 L 210.88,236.78 L 212.25,236.09 L 214.74,234.80 L 215.65,234.33 L 217.20,233.55 L 217.94,233.18 L 219.20,232.59 L 220.40,232.04 L 222.35,231.44 L 223.30,231.21 L 225.31,231.09 L 225.86,231.08 L 226.43,231.10 L 224.41,231.20 L 222.59,231.51 L 221.63,231.79 L 219.66,232.47 L 218.51,232.98 L 216.06,234.13 L 214.54,234.91 L 212.11,236.17 L 210.78,236.83 L 210.25,237.09 L 209.25,237.54 L 208.86,237.70 L 208.14,237.96 L 207.87,238.02 L 206.95,238.09 L 206.66,237.88 L 206.17,237.31 L 206.17,237.31 L 206.67,237.88 M 147.96,223.30 L 150.34,223.80 L 151.75,224.34 L 152.35,224.69 L 153.51,225.45 L 153.98,225.90 L 154.85,226.84 L 155.17,227.36 L 155.72,228.43 L 155.87,229.01 L 156.09,230.17 L 156.06,230.77 L 155.91,231.97 L 155.69,232.58 L 155.15,233.79 L 154.72,234.37 L 153.95,235.19 L 153.41,235.50 L 152.24,236.04 L 151.52,236.20 L 150.00,236.44 L 149.13,236.44 L 147.32,236.38 L 147.29,236.37 L 148.45,236.39 L 149.05,236.35 L 149.96,235.99 L 150.37,235.77 L 150.98,234.99 L 151.25,234.55 L 151.64,233.32 L 151.85,232.45 L 151.80,230.76 L 151.69,229.92 L 151.02,228.37 L 150.61,227.61 L 149.37,226.27 L 146.92,224.61 L 146.03,224.17 L 144.61,223.47 L 144.31,223.33 L 143.89,223.13 L 143.60,223.00 L 143.58,223.00 L 143.59,223.51 L 143.59,223.83 L 143.63,224.89 L 143.65,225.47 L 143.71,226.94 L 143.72,227.12 L 143.50,222.79 M 289.66,231.15 L 290.74,231.20 L 292.74,231.52 L 293.71,231.72 L 295.44,232.31 L 297.61,233.51 L 297.88,233.71 L 295.92,232.72 L 293.92,232.00 L 292.87,231.76 L 290.74,231.33 L 289.64,231.23 L 287.48,231.09 L 287.48,231.09 M 373.76,232.20 L 379.66,232.50 L 373.67,232.20 M 373.54,232.20 L 368.86,232.30 L 368.98,232.28 L 370.79,232.17 M 235.54,232.25 L 235.59,232.27 L 235.52,232.25 M 168.31,215.98 L 168.48,218.39 L 168.45,219.67 L 168.37,220.15 L 168.18,220.99 L 168.03,221.24 L 167.70,221.63 L 167.49,221.66 L 167.05,221.60 L 166.81,221.40 L 166.29,220.88 L 166.02,220.45 L 165.46,219.48 L 165.17,218.82 L 164.59,217.39 L 164.31,216.50 L 162.92,214.03 L 161.61,212.63 L 160.95,212.30 L 160.16,212.05 L 159.38,211.91 L 158.87,211.84 L 157.08,211.64 L 157.34,211.66 L 158.61,211.79 L 159.21,211.87 L 160.16,212.05 L 160.60,212.15 L 161.30,212.40 L 162.90,213.40 L 163.29,213.76 L 163.89,214.23 L 164.16,214.43 L 164.54,214.58 L 164.70,214.62 L 164.89,214.47 L 165.00,213.90 L 165.00,213.63 L 165.41,213.02 L 165.68,212.70 L 166.54,212.04 L 167.01,211.71 L 167.76,211.30 M 132.55,211.64 L 132.17,211.70 L 131.51,211.83 L 131.31,211.90 L 131.00,212.06 L 131.00,212.14 L 130.55,212.75 L 129.89,213.00 L 129.69,213.00 L 130.27,212.73 L 131.00,211.97 L 131.00,211.91 L 131.30,211.81 L 131.50,211.76 L 132.18,211.67 L 132.55,211.62 L 133.01,211.59 M 307.69,211.79 L 307.79,211.76 L 307.86,211.74 M 307.96,211.71 L 308.14,211.66 L 308.21,211.64 M 178.83,208.20 L 178.58,208.20 L 178.77,208.19 M 317.46,267.36 L 317.00,267.93 L 317.00,267.92 L 317.44,267.27 L 318.09,267.00 L 318.19,267.00 M 182.01,253.12 L 182.04,251.45 L 182.07,250.74 L 182.13,249.42 L 182.18,248.87 L 182.28,247.84 L 182.35,247.41 L 182.69,245.92 L 182.95,245.41 L 182.75,246.11 L 182.57,246.84 L 182.32,248.71 L 182.21,249.72 L 182.08,252.17 L 182.00,256.51 L 182.00,256.07 M 144.00,262.42 L 144.00,257.89 L 144.00,249.00 L 144.00,257.89 M 317.17,211.04 L 316.10,211.07 L 314.08,211.12 L 313.22,211.16 L 311.60,211.24 L 310.93,211.29 L 309.68,211.41 L 309.18,211.48 L 308.42,211.61 L 309.03,211.49 L 309.52,211.42 L 310.74,211.30 L 311.39,211.24 L 313.00,211.16 L 313.85,211.12 L 315.89,211.06 L 316.97,211.04 L 319.50,211.01 L 323.93,211.00 L 319.65,211.02 Z" fill="rgba(60,210,248,1)"/>
<path d="M 270.61,265.29 L 272.50,266.32 L 273.97,266.97 L 274.75,267.26 L 276.33,267.80 L 277.10,268.00 L 278.60,268.37 L 279.25,268.46 L 282.60,269.20 L 283.38,269.49 L 283.63,269.63 L 284.00,269.91 L 284.00,270.04 L 284.51,270.66 L 283.96,270.73 L 282.18,270.85 L 281.33,270.86 L 279.82,270.54 L 279.04,270.31 L 277.20,269.37 L 276.69,269.09 L 275.50,268.38 L 273.40,267.08 L 272.59,266.58 L 271.27,265.76 L 270.65,265.37 L 269.66,264.78 L 269.20,264.52 L 268.50,264.15 L 268.18,263.99 L 267.73,263.83 L 267.53,263.77 L 267.28,263.81 L 267.18,263.85 L 267.09,264.07 L 267.22,265.37 L 267.21,265.31 L 266.73,262.79 M 205.92,260.25 L 206.59,260.63 L 206.99,260.91 L 208.73,262.25 L 209.61,263.11 L 211.58,264.70 L 213.14,265.71 L 214.00,266.18 L 217.68,267.93 L 219.64,268.57 L 223.55,269.68 L 225.33,269.91 L 227.06,270.07 L 227.23,270.07 L 226.22,270.15 L 224.04,270.11 L 222.95,270.05 L 220.79,269.72 L 219.71,269.52 L 217.60,268.91 L 216.56,268.57 L 214.57,267.69 L 213.60,267.22 L 211.78,266.08 L 209.29,264.09 L 208.68,263.51 L 207.57,262.61 L 207.32,262.42 L 206.93,262.16 L 206.54,262.00 L 206.26,262.00 L 206.01,262.61 L 205.93,262.98 L 206.03,263.99 L 206.11,264.50 L 206.48,265.46 L 206.89,265.93 L 206.68,265.76 L 206.22,265.44 L 204.79,263.90 L 204.18,262.68 L 204.07,262.10 L 203.99,261.00 L 204.17,260.62 L 204.69,260.00 L 205.20,260.00 M 261.51,269.97 L 260.99,269.98 L 262.14,269.86 M 258.70,269.95 L 258.61,269.94 L 257.97,269.81 M 304.07,260.83 L 304.33,261.05 L 304.44,261.26 L 304.64,261.74 L 304.73,262.08 L 304.90,262.84 L 304.97,263.33 L 305.13,264.37 L 305.20,265.00 L 305.53,266.35 L 305.96,266.98 L 306.36,267.20 L 307.31,267.59 L 308.06,267.74 L 309.77,268.03 L 311.00,268.18 L 313.21,268.38 L 314.51,268.42 L 315.03,268.40 L 315.97,268.33 L 316.28,268.25 L 316.79,268.06 L 316.83,267.93 L 317.34,267.42 L 317.00,267.92 L 317.00,268.10 L 316.76,268.42 L 316.60,268.58 L 316.09,268.86 L 315.52,269.13 L 313.80,269.49 L 312.87,269.65 L 310.75,269.73 L 307.58,269.45 L 306.71,269.29 L 305.56,268.98 L 305.06,268.81 L 304.49,268.26 L 304.26,267.93 L 304.07,266.84 L 304.00,264.28 L 304.00,260.79 M 130.30,212.94 L 130.17,213.79 L 130.11,214.41 L 130.01,215.80 L 129.98,216.71 L 129.91,218.64 L 129.88,219.81 L 129.85,222.29 L 129.84,223.74 L 129.84,226.76 L 129.85,228.47 L 129.87,232.04 L 129.90,234.02 L 129.96,238.12 L 130.00,240.38 L 130.50,267.50 L 135.50,268.09 L 138.09,268.33 L 139.52,268.37 L 140.10,268.31 L 141.10,268.15 L 140.44,268.46 L 139.35,268.98 L 136.88,269.49 L 135.63,269.67 L 133.23,269.57 L 132.08,269.44 L 130.27,268.77 L 129.87,268.56 L 129.29,268.06 L 128.79,267.18 L 128.76,267.06 L 128.70,266.31 L 128.67,265.85 L 128.62,264.46 L 128.59,263.69 L 128.53,261.74 L 128.50,260.71 L 128.44,258.28 L 128.41,257.02 L 128.36,254.19 L 128.33,252.73 L 128.28,249.57 L 128.17,239.25 L 128.15,237.81 L 128.13,235.17 L 128.13,233.89 L 128.11,231.53 L 128.10,229.24 L 128.10,225.46 L 128.11,223.69 L 128.14,220.85 L 128.17,219.54 L 128.25,217.51 L 128.29,216.59 L 128.42,215.25 L 128.49,214.65 L 128.68,213.87 L 128.78,213.54 L 129.03,213.19 L 129.47,213.00 L 129.89,213.00 L 130.34,212.83 M 168.61,258.58 L 168.65,261.26 L 168.69,262.29 L 168.79,264.17 L 168.87,264.86 L 169.08,266.09 L 169.24,266.51 L 169.61,267.23 L 169.88,267.45 L 170.47,267.80 L 170.87,267.89 L 171.74,268.03 L 172.30,268.07 L 173.50,268.13 L 174.25,268.18 L 176.52,268.25 L 177.86,268.20 L 178.42,268.13 L 179.47,267.96 L 179.86,267.83 L 180.56,267.54 L 180.75,267.35 L 181.30,266.20 L 181.58,264.88 L 181.58,264.88 L 181.30,266.21 L 180.75,267.38 L 180.23,267.89 L 179.06,268.65 L 178.46,268.99 L 177.08,269.39 L 176.36,269.56 L 174.71,269.62 L 171.84,269.36 L 167.85,268.72 L 168.38,258.11 L 168.45,256.75 L 168.54,254.21 L 168.54,253.90 M 264.38,269.33 L 263.57,269.53 L 264.60,269.23 L 265.30,268.91 M 233.45,268.59 L 232.49,268.99 L 230.80,269.46 L 233.46,268.50 L 235.91,267.35 M 300.29,263.76 L 298.00,265.56 L 296.81,266.41 L 294.11,267.86 L 292.72,268.54 L 291.42,268.99 L 294.88,267.37 L 296.70,266.26 L 298.47,265.11 L 299.23,264.53 L 300.68,263.35 L 301.22,262.77 L 301.22,262.77 M 253.19,268.10 L 253.19,268.10 L 253.18,268.10 M 144.00,266.77 L 141.94,267.75 L 142.37,267.50 L 142.66,267.16 L 143.17,266.38 L 143.35,265.84 L 143.67,264.67 L 143.76,263.92 L 143.92,262.30 L 143.95,261.30 L 144.00,259.17 M 267.30,266.95 L 267.19,267.24 L 267.31,266.94 M 237.44,266.58 L 236.18,267.22 L 237.32,266.58 L 238.74,265.75 M 245.89,242.21 L 246.71,242.78 L 247.13,243.64 L 247.29,244.41 L 247.44,245.23 L 247.51,245.75 L 247.64,246.84 L 247.70,247.51 L 247.81,248.91 L 247.87,249.74 L 247.97,251.49 L 248.03,252.51 L 248.32,256.56 L 248.59,259.09 L 248.75,260.18 L 249.07,262.24 L 249.24,263.00 L 249.57,264.32 L 249.74,264.61 L 250.95,266.28 L 251.79,267.10 L 251.64,267.00 L 250.91,266.41 L 249.65,265.01 L 249.07,264.28 L 248.19,262.63 L 247.37,259.91 L 247.24,259.12 L 247.00,258.00 L 246.87,257.51 L 246.59,256.97 L 246.45,256.76 L 246.08,256.71 L 245.37,257.11 L 244.99,257.42 L 244.40,258.45 L 244.00,260.07 L 244.00,260.34 L 243.77,260.96 L 243.63,261.28 L 243.36,261.67 L 243.54,261.26 L 243.84,259.91 L 243.95,258.98 L 244.14,256.97 L 244.19,255.71 L 244.27,253.03 L 244.27,251.44 L 244.28,248.67 L 244.31,247.12 L 244.33,246.49 L 244.38,245.30 L 244.42,244.83 L 244.50,243.97 L 244.56,243.64 L 244.83,242.59 L 245.05,242.38 L 245.54,242.15 M 267.31,265.84 L 267.33,266.59 L 267.31,266.83 L 267.32,266.57 L 267.30,265.79 L 267.29,265.74 M 319.25,266.59 L 319.04,266.71 L 319.27,266.57 M 207.62,266.49 L 207.66,266.65 L 207.52,266.45 M 320.00,258.03 L 319.99,259.79 L 319.98,260.63 L 319.94,262.03 L 319.92,262.69 L 319.85,263.78 L 319.81,264.28 L 319.71,265.08 L 319.60,265.82 L 319.36,266.37 L 319.61,265.74 L 319.71,264.99 L 319.81,264.17 L 319.85,263.66 L 319.91,262.58 L 319.94,261.92 L 319.98,260.53 L 319.99,259.72 L 320.00,258.00 M 263.50,259.00 L 263.32,259.15 L 263.11,259.25 L 263.56,258.85 M 261.59,259.02 L 261.54,258.97 L 261.41,258.74 M 226.50,257.72 L 223.60,256.49 L 223.60,256.49 M 223.17,256.20 L 222.14,255.51 L 222.14,255.51 M 219.94,251.12 L 220.41,252.82 L 220.70,253.62 L 221.61,254.91 L 222.00,255.35 L 221.62,254.91 L 220.70,253.63 L 220.41,252.84 L 219.94,251.15 L 219.85,250.28 M 262.50,242.22 L 263.57,242.60 L 264.04,243.16 L 264.18,243.72 L 264.30,244.33 L 264.34,244.73 L 264.42,245.58 L 264.44,246.12 L 264.48,247.27 L 264.49,247.97 L 264.50,249.45 L 264.50,250.33 L 264.47,252.65 L 264.42,253.65 L 264.31,255.11 L 264.08,254.64 L 263.65,253.85 L 263.29,251.80 L 263.48,248.12 L 263.58,247.54 L 263.68,246.56 L 263.71,246.10 L 263.70,245.36 L 263.68,245.03 L 263.56,244.55 L 263.49,244.34 L 263.29,244.12 L 263.17,244.04 L 262.89,244.09 L 262.74,244.15 L 262.39,244.48 L 262.21,244.68 L 261.81,245.29 L 261.16,246.55 L 260.79,247.35 L 260.33,249.34 L 260.19,250.12 L 260.23,249.00 L 260.33,246.85 L 260.39,245.67 L 260.43,245.19 L 260.62,243.56 L 260.78,243.10 L 261.13,242.38 L 261.41,242.26 L 262.05,242.15 M 233.90,252.29 L 233.72,253.02 L 233.44,253.95 L 233.76,252.83 L 233.90,252.21 M 233.89,250.93 L 233.89,251.20 L 233.87,250.69 M 233.83,250.24 L 233.86,250.57 L 233.80,250.15 M 226.09,242.26 L 227.52,242.48 L 228.22,242.79 L 229.62,243.54 L 230.27,244.13 L 231.53,245.46 L 232.07,246.35 L 233.35,248.80 L 233.61,249.57 L 233.17,248.60 L 231.64,246.55 L 231.21,246.09 L 230.34,245.37 L 229.91,245.05 L 228.97,244.58 L 228.49,244.38 L 227.42,244.14 L 225.59,244.00 L 224.38,244.00 L 222.59,244.30 L 221.79,244.50 L 220.74,245.30 L 220.58,245.46 L 220.81,245.07 L 221.68,243.88 L 222.23,243.45 L 223.39,242.70 L 224.04,242.50 L 225.39,242.22 M 151.10,248.47 L 146.82,249.00 L 146.35,249.00 L 149.00,248.69 L 154.12,247.69 M 167.13,236.97 L 167.49,237.32 L 167.63,237.77 L 167.89,238.88 L 168.00,239.74 L 168.18,241.66 L 168.25,242.95 L 168.29,243.78 L 168.17,242.86 L 168.07,242.25 L 167.84,241.30 L 167.72,240.88 L 167.44,240.33 L 166.95,240.00 L 166.84,240.00 L 166.41,240.23 L 166.17,240.38 L 165.53,240.86 L 163.24,242.91 L 162.87,243.29 L 161.89,244.03 L 161.53,244.28 L 162.36,243.50 L 164.02,241.65 L 164.52,240.60 L 165.61,238.47 L 166.21,237.49 L 166.47,237.23 L 166.94,236.88 M 216.42,234.02 L 214.95,235.01 L 214.19,235.60 L 211.15,238.14 L 209.98,239.40 L 208.27,241.19 L 207.20,242.23 L 206.73,242.65 L 205.87,243.40 L 205.55,243.64 L 204.99,244.00 L 204.87,244.00 L 204.15,243.57 L 203.98,242.92 L 204.05,242.51 L 204.27,241.64 L 204.51,241.20 L 205.08,240.35 L 205.48,240.02 L 206.36,238.46 L 206.21,237.37 L 206.66,237.88 L 206.95,238.09 L 207.87,238.02 L 208.14,237.96 L 208.86,237.70 L 209.25,237.54 L 210.25,237.09 L 210.78,236.83 L 212.11,236.17 L 214.54,234.91 L 216.06,234.13 L 217.00,233.69 M 205.91,236.83 L 205.93,236.88 L 205.86,236.76 M 205.15,235.85 L 205.63,236.47 L 204.95,235.67 M 239.24,234.47 L 239.59,235.33 L 238.87,234.03 M 198.09,231.93 L 199.75,232.61 L 196.99,231.63 M 228.97,231.07 L 230.91,231.30 L 229.23,231.16 L 228.08,231.15 L 225.77,231.21 L 224.63,231.34 L 222.37,231.65 L 221.32,231.92 L 221.05,232.00 L 221.63,231.79 L 222.59,231.51 L 224.41,231.20 L 227.30,231.06 M 233.42,231.64 L 233.58,231.69 L 233.22,231.61 M 194.27,231.03 L 196.80,231.58 L 196.84,231.59 L 194.51,231.14 L 193.36,231.11 L 192.35,231.14 L 193.20,231.02 M 160.95,212.30 L 161.61,212.63 L 162.92,214.03 L 164.31,216.50 L 162.92,214.03 L 161.60,212.62 L 160.95,212.30 M 146.71,211.20 L 145.23,211.20 L 141.72,211.22 L 140.08,211.26 L 136.88,211.38 L 135.54,211.47 L 133.03,211.67 L 132.17,211.81 L 131.38,211.95 L 131.10,212.03 L 131.00,212.07 L 131.00,212.06 L 131.31,211.90 L 131.51,211.83 L 132.17,211.70 L 132.55,211.64 L 133.53,211.53 L 134.05,211.48 L 135.29,211.39 L 136.59,211.31 L 139.75,211.22 L 141.39,211.19 L 144.94,211.19 M 187.69,232.14 L 186.86,232.57 L 187.69,232.14 Z" fill="rgba(106,125,245,1)"/>
<path d="M 182.59,226.91 L 182.69,229.43 L 182.75,230.60 L 182.90,232.26 L 182.94,232.61 L 183.03,233.09 L 183.16,233.48 L 183.25,233.57 L 183.65,233.61 L 183.89,233.61 L 184.52,233.49 L 186.86,232.57 L 187.86,232.05 L 187.96,232.02 L 187.26,232.71 L 187.38,233.12 L 187.82,233.30 L 188.31,233.48 L 188.67,233.56 L 189.43,233.73 L 189.93,233.81 L 190.99,233.98 L 191.63,234.06 L 193.00,234.24 L 193.80,234.33 L 197.79,235.40 L 200.37,236.62 L 201.30,237.36 L 202.85,238.58 L 203.40,238.97 L 204.38,239.62 L 204.73,239.76 L 205.35,239.92 L 205.57,239.86 L 205.48,240.02 L 205.08,240.35 L 204.51,241.20 L 204.27,241.64 L 204.05,242.51 L 203.98,242.92 L 204.15,243.57 L 204.87,244.00 L 204.99,244.00 L 205.55,243.64 L 205.87,243.40 L 206.73,242.65 L 207.20,242.23 L 208.27,241.19 L 209.98,239.40 L 211.15,238.14 L 214.19,235.60 L 214.95,235.01 L 216.42,234.02 L 218.36,232.92 L 218.94,232.66 L 218.68,232.92 L 218.52,233.42 L 218.84,233.67 L 219.23,233.76 L 220.17,233.92 L 220.88,233.97 L 222.49,234.05 L 223.55,234.06 L 228.78,234.47 L 230.45,234.73 L 231.17,234.88 L 232.52,235.20 L 233.00,235.38 L 235.21,236.04 L 236.11,236.09 L 237.78,236.01 L 238.43,235.69 L 239.48,235.13 L 239.59,235.33 L 239.66,235.83 L 239.95,237.10 L 240.48,238.80 L 240.61,239.15 L 240.84,239.60 L 240.95,239.79 L 241.16,239.89 L 241.27,239.91 L 241.53,239.68 L 242.03,238.97 L 242.28,238.57 L 242.52,237.42 L 242.41,235.75 L 242.30,235.40 L 242.27,234.88 L 242.30,234.65 L 242.58,234.35 L 242.77,234.22 L 243.44,234.08 L 244.93,234.00 L 248.00,234.00 L 248.00,226.96 L 248.06,225.33 L 248.11,224.56 L 248.29,223.28 L 248.40,222.68 L 248.75,221.71 L 248.94,221.27 L 249.48,220.57 L 249.78,220.26 L 250.17,220.02 L 250.25,220.25 L 250.68,220.77 L 251.20,221.12 L 251.54,221.28 L 253.14,221.86 L 254.08,222.00 L 256.05,222.38 L 256.87,222.78 L 257.10,223.17 L 257.47,224.12 L 257.57,224.93 L 257.66,225.81 L 257.69,226.36 L 257.76,227.54 L 257.80,228.25 L 258.10,234.00 L 261.58,234.00 L 264.31,234.40 L 264.94,234.70 L 265.17,234.89 L 265.56,235.30 L 265.65,235.54 L 266.13,236.42 L 266.44,236.59 L 267.08,236.78 L 267.40,236.64 L 268.02,236.22 L 268.28,235.80 L 268.72,234.83 L 268.82,234.17 L 268.86,233.25 L 268.91,233.38 L 269.19,234.97 L 269.50,237.93 L 273.83,235.02 L 274.72,234.41 L 276.67,233.41 L 277.56,232.99 L 277.58,233.26 L 277.78,233.38 L 278.31,233.61 L 278.77,233.70 L 279.81,233.87 L 280.53,233.92 L 282.10,234.00 L 283.09,234.00 L 286.39,234.12 L 288.28,234.33 L 289.14,234.51 L 290.79,234.94 L 291.59,235.24 L 293.20,235.92 L 294.04,236.37 L 295.31,237.04 L 295.83,237.32 L 296.79,237.82 L 297.17,238.01 L 298.47,238.61 L 298.88,238.71 L 299.60,238.77 L 299.91,238.64 L 300.54,238.28 L 301.00,237.98 L 301.68,237.39 L 301.73,237.29 L 301.87,237.82 L 302.00,239.66 L 302.00,240.25 L 302.08,241.18 L 302.13,241.60 L 302.31,242.20 L 302.41,242.45 L 302.70,242.72 L 303.25,242.75 L 303.48,242.68 L 303.84,241.78 L 303.93,241.49 L 304.08,240.69 L 304.15,240.26 L 304.28,239.17 L 304.34,238.58 L 304.44,237.17 L 304.50,236.42 L 304.58,234.67 L 304.62,233.76 L 304.69,231.65 L 304.78,228.07 L 304.80,226.74 L 304.87,224.39 L 304.90,223.27 L 304.98,221.29 L 305.02,220.35 L 305.13,218.73 L 305.18,217.95 L 305.30,216.65 L 305.37,216.03 L 305.52,215.02 L 305.60,214.55 L 305.78,213.80 L 306.46,212.40 L 306.73,212.13 L 307.89,211.72 L 307.90,211.72 L 307.88,211.77 L 307.87,212.00 L 307.98,212.14 L 308.27,212.44 L 308.50,212.61 L 309.69,213.30 L 310.63,213.61 L 311.19,213.69 L 312.38,213.82 L 313.09,213.81 L 314.60,213.76 L 315.50,213.68 L 318.03,213.54 L 320.09,213.51 L 321.22,213.53 L 325.91,213.66 L 327.97,213.84 L 335.43,214.50 L 336.32,218.25 L 336.68,219.63 L 336.88,220.15 L 337.28,221.10 L 337.48,221.41 L 337.89,221.94 L 338.10,222.05 L 337.46,222.36 L 336.76,223.23 L 336.69,223.44 L 336.05,223.79 L 335.65,223.96 L 334.35,224.25 L 333.63,224.38 L 331.72,224.60 L 328.17,224.84 L 320.00,225.21 L 320.00,229.58 L 319.92,227.78 L 319.76,226.95 L 319.61,226.69 L 319.25,226.25 L 318.98,226.15 L 318.37,226.00 L 317.95,226.00 L 316.86,226.15 L 316.40,226.46 L 316.28,226.79 L 316.11,227.58 L 316.10,228.23 L 316.13,229.69 L 316.20,230.75 L 316.50,235.50 L 322.90,235.80 L 325.48,235.84 L 327.07,235.78 L 327.74,235.71 L 328.99,235.55 L 329.44,235.44 L 330.20,235.20 L 330.35,235.05 L 331.09,234.67 L 331.88,234.46 L 332.39,234.37 L 334.70,234.09 L 336.07,234.05 L 338.88,234.02 L 340.21,234.11 L 342.74,234.36 L 343.64,234.60 L 344.70,235.22 L 345.52,235.96 L 345.95,236.47 L 346.83,237.56 L 347.27,238.22 L 348.14,239.58 L 348.54,240.34 L 350.78,244.36 L 351.44,245.47 L 351.70,245.88 L 352.17,246.61 L 352.31,246.79 L 353.00,247.51 L 353.33,247.54 L 354.01,247.39 L 354.41,246.99 L 354.47,246.80 L 354.45,247.35 L 354.28,248.02 L 354.30,249.25 L 354.81,250.38 L 355.13,250.58 L 355.93,250.20 L 356.35,249.89 L 357.35,248.47 L 357.87,247.63 L 359.07,245.17 L 359.39,244.49 L 360.05,242.93 L 361.10,240.30 L 361.76,238.59 L 363.39,235.59 L 363.79,234.93 L 364.56,233.91 L 365.53,232.99 L 365.81,232.84 L 366.28,232.72 L 366.00,232.86 L 366.00,233.00 L 366.31,233.39 L 366.80,233.62 L 367.16,233.71 L 368.86,234.00 L 369.94,234.00 L 372.90,234.29 L 373.67,234.49 L 373.95,234.61 L 374.41,234.86 L 374.50,234.99 L 374.53,235.64 L 374.38,236.36 L 374.22,236.85 L 373.87,237.90 L 373.62,238.54 L 373.09,239.88 L 372.76,240.64 L 371.30,243.89 L 370.38,245.73 L 368.44,249.54 L 367.35,251.50 L 365.98,254.06 L 365.57,254.85 L 365.40,255.18 L 365.09,255.79 L 365.00,256.00 L 364.74,256.52 L 364.47,257.06 L 364.28,257.42 L 363.42,259.09 L 362.85,260.19 L 361.61,262.55 L 360.91,263.90 L 359.44,266.68 L 358.66,268.15 L 356.40,272.49 L 354.99,275.23 L 354.39,276.43 L 353.27,278.70 L 352.87,279.55 L 352.49,280.35 L 352.35,280.66 L 352.11,281.22 L 352.04,281.40 L 351.61,282.78 L 351.60,283.24 L 351.61,283.67 L 351.67,283.80 L 351.82,284.00 L 351.94,284.00 L 351.96,283.98 L 351.84,284.17 L 351.15,285.07 L 350.83,285.37 L 349.90,285.88 L 349.39,286.12 L 348.19,286.49 L 346.94,286.82 L 344.13,287.07 L 342.75,287.13 L 340.38,286.78 L 339.87,286.66 L 339.08,286.29 L 338.73,286.09 L 338.38,285.56 L 338.35,285.46 L 338.38,285.08 L 338.41,284.86 L 338.57,284.25 L 338.76,283.60 L 339.49,281.76 L 339.90,280.77 L 340.98,278.44 L 342.92,274.66 L 343.61,273.36 L 344.89,270.85 L 345.50,269.64 L 346.51,267.49 L 346.97,266.49 L 347.60,264.94 L 347.73,264.60 L 347.90,264.08 L 348.00,263.55 L 348.00,263.30 L 347.62,262.21 L 347.38,261.59 L 346.60,259.92 L 346.18,259.04 L 345.13,257.01 L 344.58,255.97 L 343.37,253.79 L 342.76,252.70 L 341.52,250.58 L 340.91,249.55 L 339.75,247.71 L 339.20,246.85 L 338.24,245.50 L 337.18,244.27 L 336.87,244.02 L 336.36,243.73 L 336.12,243.63 L 335.69,243.66 L 335.47,243.71 L 335.03,244.07 L 334.28,245.02 L 333.99,245.42 L 333.31,246.01 L 332.94,246.28 L 331.92,246.62 L 331.34,246.77 L 329.74,246.92 L 326.44,247.00 L 320.00,247.00 L 320.00,257.42 L 319.98,254.94 L 319.96,253.51 L 319.94,252.89 L 319.83,250.72 L 319.73,250.01 L 319.50,248.81 L 319.34,248.53 L 318.99,248.17 L 318.75,248.25 L 318.28,249.01 L 317.99,250.05 L 317.86,250.77 L 317.60,252.32 L 317.49,253.23 L 317.29,255.11 L 317.22,256.10 L 316.99,260.13 L 317.01,261.86 L 317.06,263.50 L 317.13,264.15 L 317.29,265.32 L 317.42,265.66 L 317.81,266.36 L 318.09,266.61 L 318.64,266.97 L 318.58,267.00 L 318.19,267.00 L 317.48,267.27 L 316.83,267.93 L 316.79,268.06 L 316.28,268.25 L 315.97,268.33 L 315.03,268.40 L 314.51,268.42 L 313.21,268.38 L 311.00,268.18 L 309.77,268.03 L 308.06,267.74 L 307.31,267.59 L 306.36,267.20 L 305.96,266.98 L 305.53,266.35 L 305.20,265.00 L 305.13,264.37 L 304.97,263.33 L 304.90,262.84 L 304.73,262.08 L 304.64,261.74 L 304.44,261.26 L 304.33,261.05 L 304.07,260.83 L 303.79,260.67 L 302.97,261.10 L 301.22,262.77 L 300.68,263.35 L 299.23,264.53 L 298.47,265.11 L 296.70,266.26 L 294.88,267.37 L 290.98,269.20 L 290.04,269.59 L 288.30,270.20 L 287.47,270.46 L 286.08,270.74 L 285.44,270.83 L 284.56,270.72 L 284.00,270.04 L 284.00,269.91 L 283.63,269.63 L 283.38,269.49 L 282.60,269.20 L 279.25,268.46 L 278.60,268.37 L 277.10,268.00 L 276.33,267.80 L 274.75,267.26 L 273.97,266.97 L 272.50,266.32 L 270.61,265.29 L 266.73,262.79 L 267.21,265.31 L 267.30,265.79 L 267.32,266.57 L 267.31,266.93 L 267.08,267.52 L 266.94,267.80 L 266.43,268.27 L 265.30,268.91 L 264.60,269.23 L 263.14,269.65 L 262.40,269.83 L 260.90,269.99 L 259.39,270.08 L 256.44,269.52 L 255.73,269.32 L 254.38,268.76 L 253.72,268.45 L 252.53,267.67 L 251.95,267.26 L 250.95,266.28 L 249.74,264.61 L 249.57,264.32 L 249.24,263.00 L 249.07,262.24 L 248.75,260.18 L 248.59,259.09 L 248.32,256.56 L 248.03,252.51 L 247.97,251.49 L 247.87,249.74 L 247.81,248.91 L 247.70,247.51 L 247.64,246.84 L 247.51,245.75 L 247.44,245.23 L 247.29,244.41 L 247.13,243.64 L 246.71,242.78 L 245.89,242.21 L 245.54,242.15 L 245.05,242.38 L 244.83,242.59 L 244.56,243.64 L 244.50,243.97 L 244.42,244.83 L 244.38,245.30 L 244.33,246.49 L 244.31,247.12 L 244.28,248.67 L 244.27,251.44 L 244.27,253.03 L 244.19,255.71 L 244.14,256.97 L 243.95,258.98 L 243.84,259.91 L 243.54,261.26 L 242.97,262.54 L 242.73,262.82 L 242.04,263.45 L 241.67,263.77 L 240.73,264.46 L 239.75,265.16 L 237.32,266.58 L 236.07,267.28 L 233.46,268.50 L 229.90,269.79 L 229.30,269.95 L 227.83,270.05 L 227.06,270.07 L 225.33,269.91 L 223.55,269.68 L 219.64,268.57 L 217.68,267.93 L 214.00,266.18 L 213.14,265.71 L 211.58,264.70 L 209.61,263.11 L 208.73,262.25 L 206.99,260.91 L 206.59,260.63 L 205.92,260.25 L 205.20,260.00 L 204.69,260.00 L 204.17,260.62 L 203.99,261.00 L 204.07,262.10 L 204.18,262.68 L 204.79,263.90 L 206.22,265.44 L 206.68,265.76 L 207.27,266.23 L 207.51,266.43 L 207.69,266.70 L 207.73,266.82 L 207.50,266.94 L 206.72,267.00 L 206.25,267.00 L 205.51,267.31 L 205.00,268.05 L 205.00,268.21 L 204.63,268.47 L 204.39,268.58 L 203.57,268.74 L 203.12,268.80 L 201.92,268.85 L 199.75,268.80 L 194.50,268.50 L 194.00,257.35 L 193.95,256.21 L 193.84,254.24 L 193.79,253.30 L 193.67,251.68 L 193.61,250.91 L 193.47,249.61 L 193.40,248.99 L 193.23,247.95 L 193.05,246.97 L 192.57,245.61 L 191.60,244.10 L 191.00,243.44 L 189.76,242.61 L 189.14,242.27 L 187.86,242.10 L 187.23,242.09 L 185.94,242.56 L 184.00,244.00 L 183.57,244.43 L 182.96,245.39 L 182.69,245.92 L 182.35,247.41 L 182.28,247.84 L 182.18,248.87 L 182.13,249.42 L 182.07,250.74 L 182.04,251.45 L 182.01,253.12 L 182.00,256.07 L 182.00,256.44 L 181.93,251.97 L 181.83,249.62 L 181.74,248.78 L 181.55,247.31 L 181.43,246.93 L 181.16,246.40 L 181.00,246.50 L 180.63,247.50 L 180.42,248.83 L 180.33,249.74 L 180.18,251.68 L 180.13,252.79 L 180.04,255.09 L 180.02,256.27 L 180.00,258.64 L 180.01,259.77 L 180.06,261.95 L 180.11,262.88 L 180.24,264.60 L 180.33,265.20 L 180.53,266.20 L 180.67,266.33 L 181.06,266.70 L 180.75,267.35 L 180.56,267.54 L 179.86,267.83 L 179.47,267.96 L 178.42,268.13 L 177.86,268.20 L 176.52,268.25 L 174.25,268.18 L 173.50,268.13 L 172.30,268.07 L 171.74,268.03 L 170.87,267.89 L 170.47,267.80 L 169.88,267.45 L 169.61,267.23 L 169.24,266.51 L 169.08,266.09 L 168.87,264.86 L 168.79,264.17 L 168.69,262.29 L 168.65,261.26 L 168.61,258.58 L 168.54,253.50 L 168.50,251.25 L 168.42,247.51 L 168.37,245.76 L 168.25,242.95 L 168.18,241.66 L 168.00,239.74 L 167.89,238.88 L 167.63,237.77 L 167.49,237.32 L 167.13,236.97 L 166.94,236.88 L 166.47,237.23 L 166.21,237.49 L 165.61,238.47 L 164.52,240.60 L 164.02,241.65 L 162.36,243.50 L 161.42,244.38 L 158.95,245.87 L 157.63,246.56 L 154.45,247.62 L 149.00,248.69 L 144.00,249.28 L 144.00,258.50 L 143.98,256.22 L 143.96,254.92 L 143.93,254.36 L 143.82,252.40 L 143.71,251.75 L 143.46,250.67 L 143.27,250.39 L 142.86,250.00 L 142.59,250.00 L 141.93,250.29 L 141.53,250.76 L 141.36,251.11 L 141.03,251.89 L 140.89,252.37 L 140.63,253.40 L 140.53,253.99 L 140.23,256.54 L 140.22,257.98 L 140.32,260.94 L 140.54,262.42 L 140.78,263.79 L 140.92,264.36 L 141.23,265.41 L 141.41,265.80 L 141.78,266.49 L 141.98,266.69 L 142.39,267.00 L 142.61,267.00 L 142.86,266.85 L 142.66,267.16 L 142.37,267.50 L 141.59,267.95 L 141.17,268.14 L 140.10,268.31 L 139.52,268.37 L 138.09,268.33 L 135.50,268.09 L 130.50,267.50 L 130.00,240.38 L 129.96,238.12 L 129.90,234.02 L 129.87,232.04 L 129.85,228.47 L 129.84,226.76 L 129.84,223.74 L 129.85,222.29 L 129.88,219.81 L 129.91,218.64 L 129.98,216.71 L 130.01,215.80 L 130.11,214.41 L 130.17,213.79 L 130.30,212.94 L 130.53,212.29 L 130.63,212.20 L 131.10,212.03 L 131.38,211.95 L 131.96,211.85 L 131.82,211.93 L 131.79,212.02 L 131.81,212.21 L 131.93,212.33 L 133.17,212.83 L 134.66,213.13 L 135.69,213.25 L 137.95,213.47 L 139.32,213.56 L 142.22,213.70 L 143.87,213.74 L 148.40,213.94 L 151.33,214.17 L 152.66,214.31 L 155.18,214.63 L 156.19,214.81 L 158.02,215.18 L 158.57,215.38 L 160.72,216.02 L 161.52,216.10 L 162.95,216.12 L 163.34,215.92 L 163.67,215.68 L 163.75,215.51 L 163.75,215.51 L 164.31,216.50 L 164.59,217.39 L 165.17,218.82 L 165.46,219.48 L 166.02,220.45 L 166.29,220.88 L 166.81,221.40 L 167.05,221.60 L 167.49,221.66 L 167.70,221.63 L 168.03,221.24 L 168.18,220.99 L 168.37,220.15 L 168.45,219.67 L 168.48,218.39 L 168.31,215.98 L 167.72,211.01 L 171.46,209.45 L 172.49,209.02 L 172.99,208.91 L 172.69,209.17 L 172.44,209.43 L 172.42,209.56 L 172.46,209.84 L 172.61,209.98 L 174.12,210.69 L 175.67,211.08 L 176.50,211.17 L 179.50,211.50 L 179.77,222.00 L 179.91,226.18 L 180.03,228.73 L 180.09,229.80 L 180.23,231.78 L 180.30,232.47 L 180.44,233.63 L 180.51,233.81 L 180.82,234.58 L 180.96,234.77 L 181.24,235.04 L 181.36,235.00 L 181.60,234.78 L 181.71,234.49 L 181.90,233.80 L 181.99,233.27 L 182.15,232.10 L 182.21,231.33 L 182.33,229.69 L 182.37,228.70 L 182.45,226.59 L 182.47,225.36 L 182.50,222.79 L 182.50,222.32 L 182.55,225.42 M 410.40,250.65 L 410.90,251.54 L 412.02,253.03 L 412.60,253.72 L 413.96,254.88 L 414.68,255.42 L 416.40,256.33 L 419.48,257.50 L 419.90,257.63 L 420.34,257.88 L 420.50,258.01 L 420.36,258.33 L 420.22,258.50 L 419.44,258.96 L 417.48,259.90 L 416.40,260.38 L 414.63,261.40 L 413.81,261.92 L 412.46,263.11 L 411.82,263.74 L 410.77,265.22 L 409.39,267.90 L 408.28,270.50 L 406.42,266.67 L 406.15,266.12 L 405.39,264.97 L 404.98,264.40 L 404.00,263.28 L 400.72,260.56 L 396.88,258.27 L 400.46,256.16 L 400.95,255.87 L 402.02,255.05 L 402.55,254.62 L 403.61,253.61 L 404.13,253.09 L 405.06,252.01 L 406.16,250.45 L 408.28,246.86 M 319.28,266.56 L 319.24,266.58 L 319.32,266.45 M 319.99,259.72 L 319.98,260.53 L 319.94,261.92 L 319.91,262.58 L 319.85,263.66 L 319.81,264.17 L 319.71,264.99 L 319.61,265.74 L 319.43,266.17 L 319.63,265.26 L 319.72,264.43 L 319.88,262.59 L 319.93,261.41 L 319.99,259.28 M 366.44,257.82 L 364.62,261.30 L 362.94,264.45 L 363.04,264.25 L 367.28,256.09 L 370.03,250.82 L 371.27,248.47 L 372.48,246.17 L 373.03,245.12 L 374.10,243.11 L 374.56,242.24 L 375.23,240.99 M 224.04,242.50 L 223.39,242.70 L 222.23,243.45 L 221.68,243.88 L 220.81,245.07 L 220.43,245.72 L 219.96,247.31 L 219.90,248.81 L 219.90,248.79 L 219.73,248.06 L 219.62,247.81 L 219.37,247.39 L 219.22,247.29 L 218.91,247.17 L 218.75,247.22 L 218.42,247.39 L 218.26,247.59 L 217.95,248.04 L 217.81,248.37 L 217.54,249.10 L 217.44,249.56 L 217.25,250.54 L 217.20,251.13 L 217.49,254.42 L 218.30,256.38 L 219.02,257.30 L 220.33,258.65 L 221.09,259.10 L 222.66,259.84 L 223.38,259.97 L 224.76,260.05 L 225.24,259.81 L 225.66,259.52 L 225.80,259.30 L 226.00,258.82 L 226.00,258.50 L 225.66,257.44 L 225.48,257.29 L 226.50,257.72 L 227.44,258.03 L 228.88,258.32 L 229.54,258.40 L 230.56,258.20 L 231.03,258.02 L 231.80,257.26 L 232.17,256.79 L 232.86,255.40 L 233.26,254.53 L 233.72,253.02 L 233.90,252.29 L 233.89,250.93 L 233.83,250.24 L 233.35,248.80 L 232.07,246.35 L 231.53,245.46 L 230.27,244.13 L 229.62,243.54 L 228.22,242.79 L 227.52,242.48 L 226.09,242.26 L 225.39,242.22 M 282.79,243.98 L 281.93,244.20 L 280.67,245.01 L 280.10,245.49 L 279.41,246.82 L 279.00,249.43 L 279.00,248.81 L 278.93,247.02 L 278.80,246.20 L 278.69,245.96 L 278.42,245.58 L 278.23,245.53 L 277.79,245.53 L 277.50,245.64 L 276.66,246.30 L 276.25,246.98 L 276.12,247.42 L 275.80,249.41 L 275.92,250.58 L 276.35,253.01 L 276.81,254.16 L 277.91,256.38 L 278.69,257.20 L 280.17,258.56 L 280.90,259.02 L 282.32,259.77 L 282.93,259.89 L 284.06,259.97 L 284.42,259.75 L 284.75,259.47 L 284.85,259.27 L 285.00,258.80 L 285.00,258.50 L 284.58,257.44 L 284.17,257.16 L 285.14,257.63 L 285.71,257.84 L 286.65,258.17 L 287.09,258.33 L 287.81,258.55 L 288.47,258.74 L 289.35,258.77 L 289.74,258.72 L 290.36,258.20 L 290.67,257.88 L 291.44,256.78 L 291.92,256.09 L 292.56,254.65 L 292.83,253.92 L 293.07,252.44 L 293.14,251.71 L 293.01,250.28 L 292.90,249.57 L 292.43,248.25 L 292.15,247.61 L 291.37,246.47 L 290.94,245.94 L 289.88,245.06 L 289.32,244.65 L 288.01,244.10 L 285.80,243.71 L 284.65,243.68 M 261.41,242.26 L 261.13,242.38 L 260.78,243.10 L 260.62,243.56 L 260.43,245.19 L 260.39,245.67 L 260.33,246.85 L 260.23,249.00 L 260.16,250.88 L 260.31,254.00 L 260.37,254.72 L 260.54,255.97 L 260.64,256.56 L 260.90,257.54 L 261.04,257.99 L 261.37,258.67 L 261.54,258.97 L 261.93,259.34 L 262.14,259.48 L 262.59,259.51 L 263.32,259.15 L 263.50,259.00 L 263.81,258.19 L 263.95,257.71 L 264.18,256.32 L 264.28,255.55 L 264.42,253.65 L 264.47,252.65 L 264.50,250.33 L 264.50,249.45 L 264.49,247.97 L 264.48,247.27 L 264.44,246.12 L 264.42,245.58 L 264.34,244.73 L 264.30,244.33 L 264.18,243.72 L 264.04,243.16 L 263.57,242.60 L 262.50,242.22 L 262.05,242.15 M 281.00,255.17 L 282.40,256.28 L 283.86,257.00 L 283.56,257.00 L 281.88,256.30 L 280.85,255.21 L 280.42,254.44 L 280.32,254.22 L 280.49,254.50 M 221.62,254.91 L 222.14,255.51 L 223.60,256.49 L 224.72,256.97 L 223.05,256.42 L 221.96,255.53 L 221.50,254.90 L 220.94,253.97 M 351.38,238.36 L 352.04,239.53 L 353.03,241.49 L 353.28,242.03 L 352.47,240.41 L 351.80,239.20 L 348.10,232.50 L 334.05,232.83 L 322.40,233.10 L 333.86,232.51 L 347.71,231.79 M 143.63,225.37 L 143.51,224.77 L 143.39,224.47 L 143.14,224.00 L 143.00,224.00 L 142.60,224.53 L 142.38,225.38 L 142.29,226.00 L 142.12,227.38 L 142.08,228.22 L 142.00,230.00 L 142.00,238.00 L 145.00,238.00 L 147.12,237.71 L 147.61,237.51 L 147.76,237.39 L 148.00,237.14 L 148.00,237.00 L 147.49,236.38 L 149.13,236.44 L 150.00,236.44 L 151.52,236.20 L 152.24,236.04 L 153.41,235.50 L 153.95,235.19 L 154.72,234.37 L 155.15,233.79 L 155.69,232.58 L 155.91,231.97 L 156.06,230.77 L 156.09,230.17 L 155.87,229.01 L 155.72,228.43 L 155.17,227.36 L 154.85,226.84 L 153.98,225.90 L 153.51,225.45 L 152.35,224.69 L 151.75,224.34 L 150.34,223.80 L 147.96,223.30 L 143.50,222.79 M 206.20,237.27 L 206.22,237.40 L 206.06,237.07 M 434.72,225.70 L 435.25,226.49 L 435.38,226.72 L 435.85,227.27 L 436.11,227.56 L 436.78,228.18 L 439.15,229.94 L 442.12,231.75 L 439.59,232.39 L 438.89,232.56 L 437.49,233.42 L 435.99,235.01 L 435.71,235.53 L 435.05,236.29 L 434.72,236.61 L 434.08,236.93 L 433.77,237.03 L 433.31,236.86 L 433.12,236.70 L 433.00,235.99 L 433.00,235.85 L 432.76,235.44 L 432.60,235.23 L 432.09,234.71 L 429.90,233.08 L 429.16,232.64 L 428.22,232.02 L 427.84,231.75 L 427.55,231.37 L 427.49,231.21 L 427.81,230.94 L 428.93,230.52 L 429.51,230.34 L 430.91,229.31 L 432.69,227.35 L 433.05,226.80 L 433.59,226.08 L 433.83,225.79 L 434.21,225.55 L 434.39,225.49 M 201.92,233.50 L 203.84,234.74 L 204.69,235.37 L 205.77,236.64 L 205.91,236.85 L 205.48,236.35 L 204.25,235.12 L 203.43,234.53 L 201.68,233.39 M 144.08,232.82 L 144.17,233.72 L 144.47,234.85 L 144.64,235.33 L 145.17,235.84 L 145.28,235.87 L 144.94,235.81 L 144.47,235.42 L 144.33,235.00 L 144.11,234.00 L 144.06,233.19 L 144.02,232.32 L 144.02,232.24 M 298.70,234.13 L 299.38,234.55 L 299.89,234.94 L 297.64,233.59 M 194.51,231.14 L 196.92,231.61 L 200.67,232.94 L 197.14,231.71 L 194.71,231.21 L 193.56,231.12 L 193.21,231.11 L 193.36,231.11 M 295.92,232.72 L 296.23,232.88 L 294.58,232.24 M 289.64,231.23 L 290.74,231.33 L 292.87,231.76 L 293.92,232.00 L 294.33,232.15 L 293.00,231.84 L 290.17,231.32 L 288.68,231.23 L 285.66,231.17 L 286.33,231.13 L 287.44,231.09 M 231.45,231.34 L 232.53,231.47 L 233.86,231.75 L 230.90,231.30 M 284.11,231.33 L 282.81,231.50 L 283.01,231.46 L 284.11,231.28 L 285.62,231.18 M 229.23,231.16 L 229.54,231.18 L 228.41,231.15 M 340.00,217.52 L 339.93,219.08 L 339.88,219.79 L 339.69,220.78 L 339.57,221.21 L 339.25,221.71 L 339.05,221.80 L 339.20,221.52 L 339.50,220.86 L 339.62,220.40 L 339.83,219.37 L 339.90,218.72 L 340.00,217.33 M 146.99,211.20 L 150.45,211.26 L 152.14,211.31 L 155.18,211.47 L 156.61,211.56 L 158.86,211.81 L 159.35,211.88 L 159.99,212.00 L 159.13,211.85 L 158.52,211.78 L 157.23,211.66 L 156.43,211.61 L 154.72,211.51 L 153.69,211.48 L 151.50,211.42 L 150.20,211.39 L 147.45,211.34 L 145.84,211.33 L 141.89,211.29 L 139.63,211.29 L 139.18,211.30 L 140.08,211.26 L 141.72,211.22 L 145.23,211.20 M 318.14,211.05 L 316.10,211.07 L 317.17,211.04 L 319.65,211.02 L 323.93,211.00 L 340.00,211.00 L 323.25,211.03 Z" fill="rgba(139,84,251,1)"/>
<path d="M 367.00,233.62 L 367.45,233.71 L 368.43,233.87 L 369.02,233.92 L 370.26,234.00 L 370.94,234.00 L 374.61,234.29 L 375.55,234.49 L 375.87,234.61 L 376.42,234.86 L 376.50,235.00 L 376.91,235.61 L 377.09,235.76 L 377.44,235.96 L 377.63,235.88 L 378.00,235.62 L 378.22,235.31 L 378.70,234.57 L 379.00,234.00 L 379.45,232.88 L 379.31,232.41 L 378.92,232.28 L 378.47,232.17 L 378.15,232.13 L 377.43,232.06 L 376.95,232.04 L 375.91,232.01 L 375.26,232.01 L 373.88,232.00 L 380.17,232.00 L 376.71,238.25 L 376.48,238.68 L 375.81,239.91 L 375.45,240.58 L 374.56,242.24 L 374.10,243.11 L 373.03,245.12 L 372.48,246.17 L 371.27,248.47 L 370.03,250.82 L 367.28,256.09 L 363.04,264.25 L 361.64,266.97 L 359.01,271.92 L 358.38,273.10 L 357.19,275.27 L 356.62,276.32 L 355.57,278.20 L 355.07,279.09 L 354.19,280.62 L 353.77,281.33 L 353.09,282.44 L 352.78,282.94 L 352.33,283.60 L 351.94,284.00 L 351.82,284.00 L 351.67,283.80 L 351.61,283.67 L 351.60,283.24 L 351.61,282.78 L 352.04,281.40 L 352.11,281.22 L 352.35,280.66 L 352.49,280.35 L 352.87,279.55 L 353.27,278.70 L 354.39,276.43 L 354.99,275.23 L 356.40,272.49 L 358.66,268.15 L 359.44,266.68 L 360.91,263.90 L 361.61,262.55 L 362.85,260.19 L 363.42,259.09 L 364.28,257.42 L 364.47,257.06 L 364.74,256.52 L 365.00,256.00 L 365.09,255.79 L 365.40,255.18 L 365.57,254.85 L 365.98,254.06 L 367.35,251.50 L 368.44,249.54 L 370.38,245.73 L 371.30,243.89 L 372.76,240.64 L 373.09,239.88 L 373.62,238.54 L 373.87,237.90 L 374.22,236.85 L 374.38,236.36 L 374.53,235.64 L 374.50,234.99 L 374.41,234.86 L 373.95,234.61 L 373.67,234.49 L 372.90,234.29 L 369.94,234.00 L 368.86,234.00 L 367.16,233.71 L 366.80,233.62 L 366.31,233.39 L 366.00,233.00 L 366.39,233.39 M 143.27,250.39 L 143.46,250.67 L 143.71,251.75 L 143.82,252.40 L 143.93,254.36 L 143.96,254.92 L 143.98,256.22 L 144.00,258.50 L 143.92,255.50 L 143.81,253.79 L 143.72,253.12 L 143.52,251.93 L 143.40,251.56 L 143.14,251.00 L 143.00,251.00 L 142.60,251.56 L 142.37,252.46 L 142.28,253.12 L 142.12,254.59 L 142.07,255.50 L 142.00,257.42 L 142.00,258.50 L 142.03,260.59 L 142.07,261.50 L 142.19,263.21 L 142.28,263.88 L 142.48,265.07 L 142.60,265.44 L 142.86,266.00 L 143.00,266.00 L 143.40,265.44 L 143.63,264.54 L 143.72,263.88 L 143.88,262.41 L 143.92,261.50 L 144.00,259.68 L 143.98,260.75 L 143.97,261.44 L 143.93,262.60 L 143.89,263.71 L 143.71,265.22 L 143.60,265.87 L 143.28,266.60 L 142.61,267.00 L 142.39,267.00 L 141.98,266.69 L 141.78,266.49 L 141.41,265.80 L 141.23,265.41 L 140.92,264.36 L 140.78,263.79 L 140.54,262.42 L 140.32,260.94 L 140.22,257.98 L 140.23,256.54 L 140.53,253.99 L 140.63,253.40 L 140.89,252.37 L 141.03,251.89 L 141.36,251.11 L 141.53,250.76 L 141.93,250.29 L 142.59,250.00 L 142.86,250.00 M 278.13,256.62 L 278.61,257.11 L 280.07,258.47 L 280.81,258.93 L 282.25,259.72 L 282.87,259.88 L 283.03,259.90 L 282.93,259.89 L 282.32,259.77 L 280.90,259.02 L 280.17,258.56 L 278.69,257.20 L 277.91,256.38 L 277.84,256.24 M 283.95,257.00 L 284.58,257.44 L 285.00,258.50 L 285.00,258.74 L 284.34,257.56 L 283.66,257.00 M 278.23,245.53 L 278.42,245.58 L 278.69,245.96 L 278.80,246.20 L 278.93,247.02 L 279.00,248.81 L 279.00,249.83 L 279.39,251.82 L 279.64,252.78 L 279.88,253.28 L 279.68,252.98 L 279.37,252.00 L 278.38,249.69 L 277.75,248.88 L 277.46,248.84 L 276.91,249.02 L 276.69,249.47 L 276.29,250.63 L 276.17,251.58 L 276.42,253.20 L 276.35,253.01 L 275.92,250.58 L 275.80,249.41 L 276.12,247.42 L 276.25,246.98 L 276.66,246.30 L 277.50,245.64 L 277.79,245.53 M 345.92,236.28 L 346.56,237.12 L 347.83,239.01 L 348.14,239.58 L 347.27,238.22 L 346.83,237.56 L 345.95,236.47 L 345.55,235.99 M 206.01,236.96 L 206.53,238.07 L 206.61,238.33 L 206.59,238.80 L 206.30,239.37 L 206.15,239.52 L 206.45,238.98 L 206.38,238.37 L 206.25,237.74 L 206.10,237.38 L 205.74,236.65 M 200.58,236.79 L 201.75,237.52 L 202.18,237.83 L 202.92,238.40 L 203.08,238.60 L 203.46,239.01 L 203.40,238.97 L 202.85,238.58 L 201.30,237.36 L 200.55,236.77 M 287.86,232.45 L 290.57,233.55 L 291.35,233.81 L 291.66,233.89 L 292.21,234.02 L 292.36,234.02 L 293.00,234.18 L 293.57,234.42 L 293.90,234.60 L 295.30,235.43 L 295.98,235.95 L 296.85,236.59 L 297.22,236.79 L 297.91,237.13 L 298.21,237.20 L 298.78,237.25 L 299.04,237.18 L 299.54,236.97 L 299.78,236.76 L 300.21,236.07 L 300.16,235.56 L 299.99,235.29 L 299.56,234.75 L 299.48,234.69 L 300.00,235.00 L 300.53,235.42 L 301.23,236.06 L 301.52,236.35 L 301.77,236.80 L 301.84,237.02 L 301.68,237.39 L 301.00,237.98 L 300.54,238.28 L 299.91,238.64 L 299.60,238.77 L 298.88,238.71 L 298.47,238.61 L 297.17,238.01 L 296.79,237.82 L 295.83,237.32 L 295.31,237.04 L 294.04,236.37 L 293.20,235.92 L 291.59,235.24 L 290.79,234.94 L 289.14,234.51 L 288.28,234.33 L 286.39,234.12 L 283.09,234.00 L 282.10,234.00 L 280.53,233.92 L 279.81,233.87 L 278.77,233.70 L 278.31,233.61 L 277.78,233.38 L 277.58,233.26 L 277.56,232.98 L 277.62,232.84 L 278.10,232.55 L 278.40,232.40 L 279.38,232.10 L 279.93,231.96 L 281.38,231.69 L 284.11,231.33 L 285.20,231.22 M 268.28,235.80 L 268.02,236.22 L 267.55,236.54 L 268.03,236.20 L 268.28,235.78 L 268.72,234.82 L 268.82,234.17 L 268.72,234.83 M 193.56,231.12 L 194.25,231.17 L 193.29,231.15 L 192.88,231.22 L 191.88,231.52 L 191.74,231.82 L 191.98,232.05 L 192.68,232.57 L 193.37,232.95 L 194.13,233.36 L 194.60,233.60 L 195.61,234.10 L 196.21,234.40 L 199.73,236.32 L 197.79,235.40 L 193.80,234.33 L 193.00,234.24 L 191.63,234.06 L 190.99,233.98 L 189.93,233.81 L 189.43,233.73 L 188.67,233.56 L 188.31,233.48 L 187.82,233.30 L 187.38,233.12 L 187.26,232.71 L 188.03,231.96 L 188.62,231.59 L 190.38,231.19 L 191.32,231.05 M 228.17,231.15 L 230.26,231.20 L 234.21,231.80 L 235.13,231.99 L 236.71,232.49 L 237.26,232.76 L 236.01,232.30 L 234.92,232.06 L 232.59,231.62 L 231.26,231.49 L 228.88,231.31 L 227.92,231.29 L 227.72,231.35 L 227.50,231.50 L 227.64,231.65 L 228.07,232.00 L 228.50,232.26 L 230.79,233.46 L 232.67,234.31 L 233.50,234.62 L 235.30,235.28 L 235.99,235.48 L 237.23,235.80 L 237.69,235.83 L 238.17,235.82 L 237.78,236.01 L 236.11,236.09 L 235.21,236.04 L 233.00,235.38 L 232.52,235.20 L 231.17,234.88 L 230.45,234.73 L 228.78,234.47 L 223.55,234.06 L 222.49,234.05 L 220.88,233.97 L 220.17,233.92 L 219.23,233.76 L 218.84,233.67 L 218.52,233.42 L 218.68,232.92 L 219.01,232.59 L 220.13,232.08 L 220.75,231.84 L 222.35,231.51 L 223.20,231.36 L 225.11,231.20 L 226.10,231.14 M 318.98,226.15 L 319.25,226.25 L 319.61,226.69 L 319.76,226.95 L 319.92,227.78 L 319.95,228.48 L 319.93,228.35 L 319.71,227.46 L 319.58,227.13 L 319.30,226.56 L 319.14,226.42 L 318.81,226.22 L 318.64,226.28 L 317.67,227.40 L 317.27,228.70 L 317.21,229.47 L 317.17,231.04 L 317.31,231.77 L 317.69,233.12 L 318.04,233.55 L 318.89,234.44 L 319.21,234.57 L 319.78,234.61 L 319.96,234.31 L 320.24,233.51 L 320.26,233.15 L 334.05,232.83 L 334.39,232.82 L 334.47,232.95 L 334.97,233.36 L 335.52,233.60 L 335.87,233.70 L 337.43,234.01 L 338.31,234.01 L 338.45,234.02 L 336.07,234.05 L 334.70,234.09 L 332.39,234.37 L 331.88,234.46 L 331.09,234.67 L 330.35,235.05 L 330.20,235.20 L 329.44,235.44 L 328.99,235.55 L 327.74,235.71 L 327.07,235.78 L 325.48,235.84 L 322.90,235.80 L 316.50,235.50 L 316.20,230.75 L 316.13,229.69 L 316.10,228.23 L 316.11,227.58 L 316.28,226.79 L 316.40,226.46 L 316.86,226.15 L 317.95,226.00 L 318.37,226.00 M 265.53,235.21 L 265.65,235.54 L 265.65,235.54 L 265.56,235.30 L 265.39,235.11 M 239.52,234.18 L 239.74,234.38 L 239.84,234.68 L 239.83,234.83 L 239.48,235.13 L 239.40,235.17 L 239.47,235.05 L 239.59,234.51 L 239.47,234.14 L 239.42,234.09 M 341.95,234.27 L 342.04,234.29 L 341.44,234.23 M 200.67,232.94 L 201.68,233.39 L 202.47,233.91 L 200.98,233.08 L 200.28,232.80 M 296.85,233.12 L 297.17,233.31 L 296.24,232.88 M 288.68,231.23 L 290.17,231.32 L 293.00,231.84 L 294.37,232.16 L 295.43,232.57 L 294.38,232.27 L 291.44,231.57 L 289.85,231.41 L 287.80,231.22 M 338.09,222.00 L 338.50,222.00 L 339.05,221.80 L 339.04,221.81 L 338.68,222.08 L 338.50,222.17 L 338.10,222.05 L 337.89,221.94 L 337.74,221.75 M 328.25,211.21 L 316.50,211.42 L 326.25,211.75 L 329.07,211.85 L 330.65,211.93 L 331.31,211.98 L 332.53,212.07 L 333.02,212.13 L 333.93,212.25 L 334.28,212.32 L 335.43,212.65 L 335.70,212.89 L 336.08,213.42 L 336.11,213.79 L 336.44,217.00 L 336.79,219.92 L 336.68,219.63 L 336.32,218.25 L 335.43,214.50 L 327.97,213.84 L 325.91,213.66 L 321.22,213.53 L 320.09,213.51 L 318.03,213.54 L 315.50,213.68 L 314.60,213.76 L 313.09,213.81 L 312.38,213.82 L 311.19,213.69 L 310.63,213.61 L 309.69,213.30 L 308.50,212.61 L 308.27,212.44 L 307.98,212.14 L 307.87,212.00 L 307.88,211.77 L 307.93,211.67 L 308.32,211.50 L 308.57,211.42 L 309.44,211.30 L 309.94,211.25 L 311.36,211.17 L 312.15,211.14 L 314.22,211.09 L 315.34,211.07 L 318.14,211.05 L 323.25,211.03 L 340.00,211.00 M 141.89,211.29 L 145.84,211.33 L 147.45,211.34 L 149.69,211.38 L 154.00,212.70 L 158.29,214.29 L 159.47,214.84 L 159.91,215.09 L 160.70,215.57 L 160.89,215.76 L 161.28,216.08 L 160.72,216.02 L 158.57,215.38 L 158.02,215.18 L 156.19,214.81 L 155.18,214.63 L 152.66,214.31 L 151.33,214.17 L 148.40,213.94 L 143.87,213.74 L 142.22,213.70 L 139.32,213.56 L 137.95,213.47 L 135.69,213.25 L 134.66,213.13 L 133.17,212.83 L 131.93,212.33 L 131.81,212.21 L 131.79,212.02 L 131.82,211.93 L 132.10,211.77 L 132.28,211.70 L 132.89,211.58 L 133.24,211.53 L 134.22,211.44 L 134.75,211.40 L 136.13,211.35 L 136.87,211.32 L 138.67,211.30 L 139.63,211.29 M 163.75,215.51 L 163.67,215.68 L 163.51,215.79 L 163.79,215.37 M 159.13,211.85 L 160.09,212.02 L 160.53,212.11 L 161.23,212.34 L 162.02,212.83 L 161.51,212.58 L 160.98,212.40 L 159.87,212.04 L 159.23,211.90 L 158.66,211.80 M 366.07,232.83 L 366.00,232.86 L 366.00,232.86 M 257.15,219.04 L 256.50,219.15 L 256.40,219.26 L 256.33,219.55 L 256.48,219.79 L 256.91,220.35 L 257.28,220.76 L 257.95,221.88 L 258.35,222.92 L 258.52,223.56 L 259.10,226.39 L 259.19,228.01 L 259.30,229.74 L 259.38,230.68 L 259.43,231.06 L 259.66,232.36 L 259.86,232.75 L 260.35,233.36 L 260.74,233.51 L 261.65,233.75 L 262.31,233.82 L 264.11,234.37 L 261.58,234.00 L 258.10,234.00 L 257.80,228.25 L 257.76,227.54 L 257.69,226.36 L 257.66,225.81 L 257.57,224.93 L 257.47,224.12 L 257.10,223.17 L 256.87,222.78 L 256.05,222.38 L 254.08,222.00 L 253.14,221.86 L 251.54,221.28 L 251.20,221.12 L 250.68,220.77 L 250.25,220.25 L 250.17,220.02 L 250.38,219.67 L 250.56,219.51 L 251.31,219.28 L 251.76,219.18 L 253.12,219.07 L 255.92,219.00 L 258.85,219.00 Z" fill="rgba(188,48,249,1)"/>
<path d="M 180.67,266.33 L 180.53,266.20 L 180.33,265.20 L 180.24,264.60 L 180.11,262.88 L 180.06,261.95 L 180.01,259.77 L 180.00,258.64 L 180.02,256.27 L 180.04,255.09 L 180.13,252.79 L 180.18,251.68 L 180.33,249.74 L 180.42,248.83 L 180.63,247.50 L 181.00,246.50 L 181.16,246.40 L 181.43,246.93 L 181.55,247.31 L 181.74,248.78 L 181.83,249.62 L 181.93,251.97 L 182.00,256.44 L 182.00,257.76 L 181.99,259.95 L 181.99,260.97 L 181.97,262.61 L 181.95,263.37 L 181.91,264.54 L 181.88,265.06 L 181.80,265.81 L 181.76,266.14 L 181.64,266.53 L 181.57,266.69 L 181.40,266.80 L 181.22,266.84 M 317.42,265.66 L 317.29,265.32 L 317.13,264.15 L 317.06,263.50 L 317.01,261.86 L 316.99,260.13 L 317.22,256.10 L 317.29,255.11 L 317.49,253.23 L 317.60,252.32 L 317.86,250.77 L 317.99,250.05 L 318.28,249.01 L 318.75,248.25 L 318.99,248.17 L 319.34,248.53 L 319.50,248.81 L 319.73,250.01 L 319.83,250.72 L 319.94,252.89 L 319.96,253.51 L 319.98,254.94 L 320.00,257.42 L 320.00,258.90 L 319.93,261.41 L 319.88,262.59 L 319.72,264.43 L 319.63,265.26 L 319.40,266.33 L 318.97,267.00 L 318.68,267.00 L 318.09,266.61 L 317.81,266.36 M 142.00,258.50 L 142.00,257.42 L 142.08,255.50 L 142.12,254.59 L 142.28,253.12 L 142.37,252.46 L 142.60,251.56 L 143.00,251.00 L 143.14,251.00 L 143.40,251.56 L 143.52,251.93 L 143.72,253.12 L 143.81,253.79 L 143.92,255.50 L 144.00,258.50 L 144.00,259.58 L 143.92,261.50 L 143.88,262.41 L 143.72,263.88 L 143.63,264.54 L 143.40,265.44 L 143.00,266.00 L 142.86,266.00 L 142.60,265.44 L 142.48,265.07 L 142.28,263.88 L 142.19,263.21 L 142.08,261.50 L 142.03,260.59 M 219.02,257.30 L 218.30,256.38 L 217.49,254.42 L 217.20,251.13 L 217.25,250.54 L 217.44,249.56 L 217.54,249.10 L 217.81,248.37 L 217.95,248.04 L 218.26,247.59 L 218.42,247.39 L 218.75,247.22 L 218.91,247.17 L 219.22,247.29 L 219.37,247.39 L 219.62,247.81 L 219.73,248.06 L 219.90,248.79 L 220.00,250.26 L 220.00,251.11 L 220.41,252.74 L 220.68,253.53 L 221.50,254.90 L 221.96,255.53 L 223.05,256.42 L 224.83,257.00 L 225.15,257.00 L 225.66,257.44 L 226.00,258.50 L 226.00,258.82 L 225.80,259.30 L 225.66,259.52 L 225.24,259.81 L 224.76,260.05 L 223.38,259.97 L 222.66,259.84 L 221.09,259.10 L 220.33,258.65 M 278.61,257.11 L 278.13,256.62 L 277.39,255.67 L 277.06,255.20 L 276.59,254.29 L 276.17,251.58 L 276.29,250.63 L 276.69,249.47 L 276.91,249.02 L 277.46,248.84 L 277.75,248.88 L 278.38,249.69 L 279.37,252.00 L 279.68,252.98 L 280.83,254.77 L 281.13,255.17 L 281.78,255.83 L 282.75,256.49 L 283.37,256.76 L 284.34,257.56 L 285.00,258.74 L 285.00,259.02 L 284.84,259.43 L 284.74,259.62 L 284.40,259.85 L 284.02,260.03 L 282.87,259.88 L 282.25,259.72 L 280.81,258.93 L 280.07,258.47 M 352.31,246.79 L 352.17,246.61 L 351.70,245.88 L 351.44,245.47 L 350.78,244.36 L 348.54,240.34 L 347.83,239.01 L 346.56,237.12 L 345.92,236.28 L 344.53,235.20 L 343.79,234.74 L 341.95,234.27 L 338.31,234.01 L 337.43,234.01 L 335.87,233.70 L 335.52,233.60 L 334.97,233.36 L 334.47,232.95 L 334.36,232.78 L 334.63,232.51 L 334.85,232.40 L 335.77,232.24 L 336.31,232.18 L 337.88,232.14 L 340.98,232.20 L 348.14,232.50 L 351.82,239.20 L 352.48,240.41 L 353.46,242.35 L 353.88,243.25 L 354.41,244.62 L 354.61,245.24 L 354.71,246.12 L 354.41,246.99 L 354.01,247.39 L 353.33,247.54 L 353.00,247.51 M 203.08,238.60 L 202.92,238.40 L 202.18,237.83 L 201.75,237.52 L 200.58,236.79 L 196.21,234.40 L 195.61,234.10 L 194.60,233.60 L 194.13,233.36 L 193.37,232.95 L 192.68,232.57 L 191.98,232.05 L 191.74,231.82 L 191.88,231.52 L 192.88,231.22 L 193.29,231.15 L 194.28,231.18 L 194.80,231.21 L 195.97,231.42 L 197.16,231.67 L 199.72,232.58 L 200.98,233.08 L 203.20,234.31 L 203.70,234.63 L 204.54,235.28 L 205.46,236.25 L 205.74,236.64 L 206.10,237.38 L 206.25,237.74 L 206.38,238.37 L 206.45,238.98 L 206.03,239.73 L 205.75,240.01 L 204.80,239.93 L 204.55,239.84 L 203.98,239.48 L 203.69,239.26 M 142.00,231.00 L 142.00,230.00 L 142.08,228.22 L 142.12,227.38 L 142.29,226.00 L 142.38,225.38 L 142.60,224.53 L 143.00,224.00 L 143.14,224.00 L 143.39,224.47 L 143.51,224.77 L 143.71,225.75 L 143.80,226.29 L 143.92,227.66 L 144.00,230.00 L 144.00,230.67 L 144.01,231.79 L 144.02,232.32 L 144.06,233.19 L 144.11,234.00 L 144.33,235.00 L 144.47,235.42 L 144.94,235.81 L 146.00,236.00 L 146.55,236.00 L 147.41,236.29 L 148.00,237.00 L 148.00,237.14 L 147.76,237.39 L 147.61,237.51 L 147.12,237.71 L 145.00,238.00 L 142.00,238.00 L 142.00,231.00 M 295.98,235.95 L 295.30,235.43 L 293.90,234.60 L 293.57,234.42 L 293.00,234.18 L 292.36,234.02 L 292.21,234.02 L 291.66,233.89 L 291.35,233.81 L 290.57,233.55 L 287.86,232.45 L 284.50,230.90 L 289.85,231.41 L 291.44,231.57 L 294.38,232.27 L 295.77,232.67 L 297.97,233.68 L 298.46,233.94 L 299.22,234.48 L 299.56,234.75 L 299.99,235.29 L 300.16,235.56 L 300.21,236.07 L 299.78,236.76 L 299.54,236.97 L 299.04,237.18 L 298.78,237.25 L 298.21,237.20 L 297.91,237.13 L 297.22,236.79 L 296.85,236.59 M 265.68,235.61 L 265.53,235.21 L 264.46,234.48 L 262.31,233.82 L 261.65,233.75 L 260.74,233.51 L 260.35,233.36 L 259.86,232.75 L 259.66,232.36 L 259.43,231.06 L 259.38,230.68 L 259.30,229.74 L 259.19,228.01 L 259.10,226.39 L 258.52,223.56 L 258.35,222.92 L 257.95,221.88 L 257.28,220.76 L 256.91,220.35 L 256.48,219.79 L 256.33,219.55 L 256.40,219.26 L 256.50,219.15 L 257.15,219.04 L 258.85,219.00 L 262.00,219.00 L 262.00,225.50 L 262.00,232.00 L 265.57,232.00 L 266.34,232.00 L 267.42,232.07 L 267.89,232.13 L 268.46,232.38 L 268.69,232.53 L 268.86,233.04 L 268.82,234.17 L 268.72,234.82 L 268.28,235.78 L 268.03,236.20 L 267.40,236.64 L 267.09,236.79 L 266.45,236.62 L 266.15,236.46 M 233.50,234.62 L 232.67,234.31 L 230.79,233.46 L 228.50,232.26 L 228.07,232.00 L 227.64,231.65 L 227.50,231.50 L 227.72,231.35 L 227.92,231.29 L 228.88,231.31 L 231.26,231.49 L 232.59,231.62 L 234.92,232.06 L 236.01,232.30 L 237.70,232.92 L 238.45,233.25 L 239.31,233.96 L 239.47,234.14 L 239.59,234.51 L 239.47,235.05 L 239.29,235.34 L 238.79,235.68 L 238.50,235.81 L 237.69,235.83 L 237.23,235.80 L 235.99,235.48 L 235.30,235.28 M 376.50,235.00 L 376.42,234.86 L 375.87,234.61 L 375.55,234.49 L 374.61,234.29 L 370.94,234.00 L 370.26,234.00 L 369.02,233.92 L 368.43,233.87 L 367.45,233.71 L 367.00,233.62 L 366.39,233.39 L 366.00,233.00 L 366.00,232.86 L 366.53,232.60 L 366.88,232.48 L 368.01,232.29 L 368.64,232.20 L 370.24,232.08 L 373.04,232.00 L 373.88,232.00 L 375.26,232.01 L 375.91,232.01 L 376.95,232.04 L 377.43,232.06 L 378.15,232.13 L 378.47,232.17 L 378.92,232.28 L 379.31,232.41 L 379.45,232.88 L 379.00,234.00 L 378.70,234.57 L 378.22,235.31 L 378.00,235.62 L 377.63,235.88 L 377.44,235.96 L 377.09,235.76 L 376.91,235.61 M 180.51,233.81 L 180.44,233.63 L 180.30,232.47 L 180.23,231.78 L 180.09,229.80 L 180.03,228.73 L 179.91,226.18 L 179.77,222.00 L 179.50,211.50 L 176.50,211.17 L 175.67,211.08 L 174.12,210.69 L 172.61,209.98 L 172.46,209.84 L 172.42,209.56 L 172.44,209.43 L 172.69,209.17 L 173.00,208.91 L 174.27,208.50 L 174.98,208.31 L 176.77,208.12 L 179.63,208.17 L 182.50,208.50 L 182.50,221.34 L 182.50,222.79 L 182.47,225.36 L 182.45,226.59 L 182.37,228.70 L 182.33,229.69 L 182.21,231.33 L 182.15,232.10 L 181.99,233.27 L 181.90,233.80 L 181.71,234.49 L 181.60,234.78 L 181.36,235.00 L 181.24,235.04 L 180.96,234.77 L 180.82,234.58 M 318.04,233.55 L 317.69,233.12 L 317.31,231.77 L 317.17,231.04 L 317.21,229.47 L 317.27,228.70 L 317.67,227.40 L 318.64,226.28 L 318.81,226.22 L 319.14,226.42 L 319.30,226.56 L 319.58,227.13 L 319.71,227.46 L 319.93,228.35 L 320.17,230.03 L 320.28,231.16 L 320.28,232.79 L 320.24,233.51 L 319.96,234.31 L 319.78,234.61 L 319.21,234.57 L 318.89,234.44 M 336.83,220.25 L 336.44,217.00 L 336.11,213.79 L 336.08,213.42 L 335.70,212.89 L 335.43,212.65 L 334.28,212.32 L 333.93,212.25 L 333.02,212.13 L 332.53,212.07 L 331.31,211.98 L 330.65,211.93 L 329.07,211.85 L 326.25,211.75 L 316.50,211.42 L 328.25,211.21 L 340.00,211.00 L 340.00,216.50 L 340.00,217.56 L 339.93,219.14 L 339.88,219.85 L 339.68,220.83 L 339.57,221.26 L 339.22,221.73 L 338.50,222.00 L 338.09,222.00 L 337.39,221.49 L 337.09,221.17 M 160.89,215.76 L 160.70,215.57 L 159.91,215.09 L 159.47,214.84 L 158.29,214.29 L 154.00,212.70 L 148.50,211.02 L 154.78,211.33 L 156.44,211.41 L 159.23,211.90 L 159.87,212.04 L 160.98,212.40 L 161.51,212.58 L 162.36,213.00 L 162.76,213.22 L 163.34,213.70 L 163.59,213.94 L 163.85,214.45 L 163.94,214.71 L 163.87,215.25 L 163.34,216.06 L 162.96,216.44 L 162.20,216.56 L 161.80,216.51 Z" fill="rgba(208,30,234,1)"/>
</g>
</svg>